<?xml version="1.0" encoding="utf-8"?>
<!-- Generator: Adobe Illustrator 29.2.1, SVG Export Plug-In . SVG Version: 9.03 Build 55982)  -->
<svg version="1.0" id="Layer_1" xmlns="http://www.w3.org/2000/svg" xmlns:xlink="http://www.w3.org/1999/xlink" x="0px" y="0px"
	 viewBox="0 0 1080 1080" enable-background="new 0 0 1080 1080" xml:space="preserve">
<g>
	<g>
		<path fill="#FFFFFF" d="M10.4,540.8c9.5-474.1,576.7-708.5,912.2-370.4c95.7,97.8,150,234,147.4,370.4c0,0-16.8,0-16.8,0
			c-0.8-196.8-129.3-384-312.7-454.5c-245.7-99.6-535.7,23.4-631.6,270.9c-23.2,58.4-34.4,121.1-33.5,183.6H10.4L10.4,540.8z"/>
		<path fill="#FFFFFF" d="M1069.6,539.2c-9.5,474.1-576.7,708.5-912.2,370.4C61.7,811.8,7.4,675.6,10,539.2c0,0,16.8,0,16.8,0
			c0.8,196.8,129.3,384,312.7,454.5c245.7,99.6,535.7-23.4,631.6-270.9c23.2-58.4,34.4-121.1,33.5-183.6H1069.6L1069.6,539.2z"/>
	</g>
	<g>
		<g>
			<path fill="#FFFFFF" d="M261.1,405.6c2.4,0,3.5,1.2,3.5,3.5v15.3c0,2.4-1.2,3.5-3.5,3.5h-64.5c-3.1,0-5.3,0.8-6.6,2.4
				c-1.3,1.6-1.9,3.8-1.9,6.6v5.5c0,6,2.8,9,8.4,9h44.2c9.3,0,16.4,2.4,21.1,7.2c4.7,4.8,7.1,11.6,7.1,20.5V492
				c0,7.8-2.3,14.2-6.9,19c-4.6,4.8-11.8,7.2-21.6,7.2h-73c-2.5,0-3.7-1.2-3.7-3.5v-15.3c0-2.4,1.2-3.5,3.7-3.5h68.4
				c3.1,0,5.3-0.8,6.6-2.4c1.3-1.6,1.9-3.8,1.9-6.6v-6.6c0-6-2.8-9-8.4-9h-44.2c-9.3,0-16.4-2.4-21.1-7.2
				c-4.7-4.8-7.1-11.6-7.1-20.5v-11.7c0-7.8,2.3-14.2,6.9-19c4.6-4.8,11.8-7.2,21.6-7.2H261.1z"/>
			<path fill="#FFFFFF" d="M298,429.9c2.4,0,3.5,1.2,3.5,3.7v46.5c0,3.4,0.2,6.3,0.6,8.5c0.4,2.3,1.2,4.1,2.4,5.4
				c1.2,1.3,2.8,2.3,5,2.9c2.1,0.6,5,0.9,8.5,0.9h25.2c3.5,0,6.4-0.3,8.7-0.9c2.3-0.6,4-1.6,5.4-2.9c1.3-1.3,2.3-3.1,2.8-5.4
				c0.5-2.3,0.8-5.1,0.8-8.5v-46.5c0-2.5,1.2-3.7,3.5-3.7h15.8c2.4,0,3.5,1.2,3.5,3.7v52.1c0,5.8-0.6,10.8-1.9,14.9
				c-1.3,4.1-3.4,7.5-6.4,10.1c-3,2.6-6.9,4.5-11.8,5.7c-4.9,1.2-11,1.8-18.2,1.8h-28.8c-7.3,0-13.4-0.6-18.3-1.8
				c-4.9-1.2-8.8-3.1-11.7-5.7c-3-2.6-5.1-6-6.4-10.1c-1.3-4.1-1.9-9.1-1.9-14.9v-52.1c0-2.5,1.2-3.7,3.7-3.7H298z"/>
			<path fill="#FFFFFF" d="M468.8,429.9c7.2,0,13.2,0.6,18.2,1.9c4.9,1.2,8.9,3.2,11.8,5.8c2.9,2.6,5.1,6,6.4,10.1
				c1.3,4.1,1.9,9.1,1.9,14.9v23.2c0,5.8-0.6,10.8-1.9,14.9c-1.3,4.1-3.4,7.5-6.4,10.1c-3,2.6-6.9,4.5-11.8,5.7
				c-4.9,1.2-11,1.8-18.2,1.8h-50.7v32c0,2.4-1.2,3.5-3.5,3.5h-15.8c-2.5,0-3.7-1.2-3.7-3.5v-87.7c0-5.8,0.6-10.8,1.9-14.9
				c1.3-4.1,3.4-7.5,6.4-10.1c2.9-2.6,6.9-4.6,11.7-5.8c4.9-1.2,11-1.9,18.3-1.9H468.8z M418.1,498.9h48.4c3.5,0,6.4-0.3,8.7-0.8
				c2.3-0.5,4-1.5,5.4-2.9c1.3-1.4,2.3-3.2,2.8-5.5c0.5-2.3,0.8-5.1,0.8-8.5v-14.3c0-3.3-0.3-6.1-0.8-8.4c-0.5-2.3-1.5-4.1-2.8-5.5
				c-1.3-1.3-3.1-2.3-5.4-2.9c-2.3-0.6-5.1-0.9-8.7-0.9h-30.9c-3.4,0-6.3,0.3-8.5,0.9c-2.3,0.6-4,1.6-5.4,2.9
				c-1.3,1.3-2.3,3.2-2.8,5.5c-0.5,2.3-0.8,5.1-0.8,8.4V498.9z"/>
			<path fill="#FFFFFF" d="M590.9,429.9c5.5,0,10,0.5,13.6,1.4c3.6,0.9,6.4,2.4,8.5,4.5c2.1,2.1,3.6,4.8,4.4,8.2
				c0.9,3.4,1.3,7.5,1.3,12.3v15.3c0,3.4-0.8,5.8-2.3,7.2c-1.5,1.3-3.8,2-6.9,2h-68.4v3.9c0,5,1.2,8.7,3.6,10.9
				c2.4,2.3,7.1,3.4,14.1,3.4h54.2c1.9,0,2.9,1,2.9,2.9v13.5c0,1.9-1,2.9-2.9,2.9h-56.5c-7.3,0-13.4-0.6-18.3-1.8
				c-4.9-1.2-8.8-3.1-11.7-5.7c-3-2.6-5.1-6-6.4-10.1c-1.3-4.1-1.9-9.1-1.9-14.9v-23.2c0-5.8,0.6-10.8,1.9-14.9
				c1.3-4.1,3.4-7.5,6.4-10.1c2.9-2.6,6.9-4.6,11.7-5.8c4.9-1.2,11-1.9,18.3-1.9H590.9z M541.2,466.4h52.3c1.8,0,2.7-0.9,2.7-2.7
				V457c0-3.3-0.7-5.7-2.1-7.1c-1.4-1.4-4-2.1-7.7-2.1h-27.5c-7,0-11.7,1.1-14.1,3.3c-2.4,2.2-3.6,5.9-3.6,11V466.4z"/>
			<path fill="#FFFFFF" d="M697.3,429.9c1.9,0,2.9,1,2.9,2.9v13.5c0,1.9-1,2.9-2.9,2.9H669c-3.4,0-6.3,0.3-8.5,0.9
				c-2.3,0.6-4,1.6-5.4,2.9c-1.3,1.3-2.3,3.2-2.8,5.5c-0.5,2.3-0.8,5.1-0.8,8.4v47.8c0,2.4-1.2,3.5-3.5,3.5h-15.8
				c-2.5,0-3.7-1.2-3.7-3.5v-52.1c0-5.8,0.6-10.8,1.9-14.9c1.3-4.1,3.4-7.5,6.4-10.1c2.9-2.6,6.9-4.6,11.7-5.8
				c4.9-1.2,11-1.9,18.3-1.9H697.3z"/>
		</g>
		<path fill="#FFFFFF" d="M544.9,557.5c2.4,0,3.5,1.2,3.5,3.5v15.3c0,2.4-1.2,3.5-3.5,3.5h-64.5c-3.1,0-5.3,0.8-6.6,2.4
			c-1.3,1.6-1.9,3.8-1.9,6.6v5.5c0,6,2.8,9,8.4,9h44.2c9.3,0,16.4,2.4,21.1,7.2c4.7,4.8,7.1,11.6,7.1,20.5v12.9
			c0,7.8-2.3,14.2-6.9,19c-4.6,4.8-11.8,7.2-21.6,7.2h-73c-2.5,0-3.7-1.2-3.7-3.5v-15.3c0-2.4,1.2-3.5,3.7-3.5h68.4
			c3.1,0,5.3-0.8,6.6-2.4c1.3-1.6,1.9-3.8,1.9-6.6v-6.6c0-6-2.8-9-8.4-9h-44.2c-9.3,0-16.4-2.4-21.1-7.2c-4.7-4.8-7.1-11.6-7.1-20.5
			v-11.7c0-7.8,2.3-14.2,6.9-19c4.6-4.8,11.8-7.2,21.6-7.2H544.9z"/>
		<path fill="#FFFFFF" d="M583.2,549.5c2.4,0,3.5,1.2,3.5,3.5v28.8h44.1c7.2,0,13.2,0.6,18.2,1.9c4.9,1.2,8.9,3.2,11.8,5.8
			c2.9,2.6,5.1,6,6.4,10.1c1.3,4.1,1.9,9.1,1.9,14.9v52.1c0,2.4-1.2,3.5-3.5,3.5h-15.8c-2.4,0-3.5-1.2-3.5-3.5v-46.7
			c0-3.3-0.2-6.1-0.6-8.4c-0.4-2.3-1.3-4.1-2.5-5.5c-1.2-1.3-2.9-2.3-5.1-2.9c-2.1-0.6-4.9-0.9-8.4-0.9h-42.9v64.4
			c0,2.4-1.2,3.5-3.5,3.5h-15.8c-2.4,0-3.5-1.2-3.5-3.5V553c0-2.4,1.2-3.5,3.5-3.5H583.2z"/>
		<path fill="#FFFFFF" d="M764.4,581.8c1.2,0,2,0.4,2.3,1.2c0.4,0.8,0.3,1.7-0.2,2.8L732,681.5c-3.5,9.6-10.8,17.3-20.2,21.5
			c0,0-0.1,0-0.1,0.1c-3.9,1.8-9.4,2.7-16.3,2.7h-11.3c-1.6,0-2.9-1.3-2.9-2.9v-13.2c0-1.6,1.3-2.9,2.9-2.9h9.5
			c4.1,0,10-1.2,11.4-3.7l5.5-15.3c-2.7-0.2-4.7-0.9-6.2-1.9c-1.4-1.1-2.8-2.7-4.1-5l-27.3-75c-0.5-1.1-0.6-2-0.2-2.8
			c0.4-0.8,1.2-1.2,2.3-1.2h18.5c1.8,0,3.1,0.8,3.9,2.3l19.6,61.9c0.9,1.5,1.5,2.5,2,3c0.5,0.5,1.1,0.7,1.9,0.7l21.7-65.6
			c0.7-1.5,2-2.3,3.9-2.3H764.4z"/>
		<path fill="#FFFFFF" d="M794.9,581.8v-3.4c0-5.7,0.5-10.5,1.4-14.6s2.7-7.3,5.1-9.9c2.5-2.6,5.8-4.5,10-5.7
			c4.2-1.2,9.5-1.9,15.9-1.9h14.6c1.9,0,2.9,1,2.9,2.9v13.2c0,1.9-1,2.9-2.9,2.9h-10.8c-5.3,0-8.8,1-10.7,3.1
			c-1.9,2.1-2.8,5.4-2.8,9.9v3.4h23.3c1.9,0,2.9,1,2.9,2.9v13.2c0,1.9-1,2.9-2.9,2.9h-23.3v65.8c0,2.4-1.2,3.5-3.5,3.5h-15.8
			c-2.4,0-3.5-1.2-3.5-3.5v-65.8h-15.4c-1.9,0-2.9-1-2.9-2.9v-13.2c0-1.9,1-2.9,2.9-2.9H794.9z"/>
		<path fill="#FFFFFF" d="M871.2,581.8v-21.2c0-2.4,1.2-3.5,3.5-3.5h15.9c2.4,0,3.5,1.2,3.5,3.5v21.2h18.5c1.9,0,2.9,1,2.9,2.9v13.2
			c0,1.9-1,2.9-2.9,2.9h-18.5v37.3c0,4.5,0.9,7.8,2.7,9.9c1.8,2.1,5.4,3.1,10.8,3.1h5.9c1.9,0,2.9,1,2.9,2.9v13.2
			c0,1.9-1,2.9-2.9,2.9h-9.8c-6.4,0-11.7-0.6-15.9-1.8c-4.2-1.2-7.5-3.1-10.1-5.6c-2.5-2.6-4.3-5.9-5.2-10c-1-4.1-1.4-9-1.4-14.6
			v-37.3h-15.3c-1.9,0-2.9-1-2.9-2.9v-13.2c0-1.9,1-2.9,2.9-2.9H871.2z"/>
	</g>
</g>
</svg>
